<svg width="22" height="11" viewBox="0 0 22 11" fill="none" xmlns="http://www.w3.org/2000/svg">
<path d="M21.7439 5.10416L15.6014 0.518173C15.4362 0.400315 15.2154 0.335264 14.9865 0.336946C14.7575 0.338627 14.5386 0.406907 14.3765 0.527169C14.2144 0.647432 14.122 0.81012 14.1191 0.980409C14.1162 1.1507 14.2031 1.31506 14.3611 1.4383L18.9778 4.88451H1.87597C1.75663 4.87907 1.63706 4.89185 1.52461 4.92208C1.41217 4.95231 1.30923 4.99933 1.22214 5.06027C1.13505 5.1212 1.06564 5.19475 1.0182 5.27638C0.970763 5.35801 0.946289 5.44601 0.946289 5.53494C0.946289 5.62387 0.970763 5.71187 1.0182 5.7935C1.06564 5.87513 1.13505 5.94868 1.22214 6.00961C1.30923 6.07055 1.41217 6.11757 1.52461 6.1478C1.63706 6.17803 1.75663 6.19081 1.87597 6.18537H19.0468L14.3644 9.62914C14.2753 9.68804 14.2033 9.75984 14.1529 9.84014C14.1024 9.92045 14.0744 10.0076 14.0708 10.0962C14.0671 10.1848 14.0878 10.273 14.1316 10.3555C14.1754 10.4379 14.2413 10.5129 14.3253 10.5757C14.4094 10.6386 14.5098 10.688 14.6204 10.721C14.7311 10.754 14.8496 10.7699 14.9687 10.7676C15.0879 10.7654 15.2051 10.7451 15.3134 10.7079C15.4216 10.6708 15.5185 10.6177 15.5982 10.5517L21.7407 6.02673C21.8222 5.9662 21.8869 5.8943 21.9311 5.81515C21.9752 5.73599 21.9979 5.65114 21.9979 5.56545C21.9979 5.47975 21.9752 5.3949 21.9311 5.31575C21.8869 5.23659 21.8222 5.16469 21.7407 5.10416H21.7439Z" fill="#FA5A0A"/>
</svg>
