<svg width="36" height="36" viewBox="0 0 36 36" fill="none" xmlns="http://www.w3.org/2000/svg">
<rect width="36" height="36" rx="18" fill="white" fill-opacity="0.16"/>
<path d="M10 9H11.6256C12.193 9 12.4767 9 12.7021 9.12433C12.7951 9.17561 12.8793 9.24136 12.9516 9.31912C13.1269 9.50769 13.1957 9.7829 13.3333 10.3333L13.5149 11.0597C13.616 11.464 13.6665 11.6662 13.7446 11.8358C14.0153 12.4245 14.5546 12.8455 15.1914 12.9655C15.3749 13 15.5833 13 16 13" stroke="white" stroke-width="2" stroke-linecap="round"/>
<path d="M24.0001 22H13.551C13.4048 22 13.3317 22 13.2762 21.9938C12.6886 21.928 12.2861 21.3695 12.4095 20.7913C12.4211 20.7367 12.4443 20.6674 12.4905 20.5287C12.5418 20.3747 12.5675 20.2977 12.5958 20.2298C12.8861 19.5342 13.5428 19.0608 14.2945 19.0054C14.368 19 14.4491 19 14.6114 19H20.0001" stroke="white" stroke-width="2" stroke-linecap="round" stroke-linejoin="round"/>
<path d="M20.5279 19H16.9743C15.7583 19 15.1504 19 14.6814 18.7246C14.4834 18.6083 14.3068 18.4588 14.1596 18.2825C13.8108 17.8652 13.7109 17.2655 13.511 16.0662C13.3084 14.8509 13.2072 14.2433 13.4476 13.7932C13.5479 13.6054 13.6872 13.441 13.856 13.3111C14.2604 13 14.8764 13 16.1085 13H22.7639C24.2143 13 24.9395 13 25.2326 13.4743C25.5257 13.9485 25.2014 14.5972 24.5528 15.8944L24.1056 16.7889C23.5677 17.8647 23.2987 18.4026 22.8154 18.7013C22.3321 19 21.7307 19 20.5279 19Z" stroke="white" stroke-width="2" stroke-linecap="round"/>
<path d="M23 26C23.5523 26 24 25.5523 24 25C24 24.4477 23.5523 24 23 24C22.4477 24 22 24.4477 22 25C22 25.5523 22.4477 26 23 26Z" fill="white"/>
<path d="M15 26C15.5523 26 16 25.5523 16 25C16 24.4477 15.5523 24 15 24C14.4477 24 14 24.4477 14 25C14 25.5523 14.4477 26 15 26Z" fill="white"/>
</svg>
